<svg width="100" height="100" viewBox="0 0 100 100" xmlns="http://www.w3.org/2000/svg">
  <rect x="0" y="0" width="100" height="100" fill="#FFF"/>
  <path d="M50 90C28.2285 90 10 71.7715 10 50C10 28.2285 28.2285 10 50 10C71.7715 10 90 28.2285 90 50C90 71.7715 71.7715 90 50 90ZM50 80C66.5685 80 80 66.5685 80 50C80 33.4315 66.5685 20 50 20C33.4315 20 20 33.4315 20 50C20 66.5685 33.4315 80 50 80Z" fill="#FF0000"/>
  <text x="50" y="56" font-size="50" font-weight="bold" fill="#FFF" text-anchor="middle" alignment-baseline="central">ckw</text>
</svg>





























